P3
# CREATOR: GIMP PNM Filter Version 1.1
12 12
255
255
255
255
255
255
255
255
255
255
255
255
255
255
255
255
192
192
191
128
129
128
115
116
114
253
252
251
255
255
255
255
255
255
255
255
255
255
255
255
255
255
255
255
255
255
255
255
255
255
255
255
24
24
22
0
0
0
0
0
0
157
158
157
255
255
255
255
255
255
255
255
255
255
255
255
255
255
255
255
255
255
255
255
255
155
156
153
0
0
0
0
0
0
0
0
0
87
87
85
255
255
255
255
255
255
255
255
255
255
255
255
255
255
255
255
255
255
252
252
251
48
48
47
0
0
0
0
0
0
0
0
0
20
20
20
252
251
250
255
255
255
255
255
255
255
255
255
255
255
255
255
255
255
234
234
234
1
1
1
66
65
64
17
16
16
0
0
0
11
11
10
231
231
230
255
255
255
255
255
255
255
255
255
255
255
255
255
255
255
101
101
99
0
0
0
188
188
188
98
99
97
0
0
0
0
0
0
203
203
202
255
255
255
255
255
255
255
255
255
255
255
255
243
242
242
0
0
0
30
29
29
255
255
255
197
197
194
0
0
0
0
0
0
129
130
128
255
255
255
255
255
255
255
255
255
255
255
255
135
135
134
0
0
0
0
0
0
0
0
0
0
0
0
0
0
0
0
0
0
65
65
64
255
255
255
255
255
255
255
255
255
255
255
255
39
39
38
2
2
2
86
86
85
127
127
125
127
127
126
24
24
23
0
0
0
0
0
0
255
255
255
255
255
255
255
255
255
200
199
197
0
0
0
62
62
61
255
255
255
255
255
255
255
255
255
99
99
98
0
0
0
0
0
0
197
197
195
255
255
255
194
195
192
7
7
6
0
0
0
16
16
15
227
228
227
255
255
255
186
185
182
0
0
0
0
0
0
0
0
0
30
30
30
251
251
250
196
195
193
71
72
70
77
78
77
78
78
77
221
221
219
255
255
255
208
208
205
98
98
96
103
102
101
103
103
102
119
119
117
251
251
251
