P3
# CREATOR: GIMP PNM Filter Version 1.1
12 12
255
0
254
191
0
254
191
0
254
191
0
254
191
0
254
190
0
254
189
0
254
189
0
254
190
0
254
191
0
254
191
0
254
191
0
254
191
0
254
191
0
254
191
0
254
191
4
254
192
119
254
220
210
254
243
210
254
243
119
254
220
4
254
192
0
254
191
0
254
191
0
254
191
0
254
191
0
254
191
78
255
211
142
241
217
34
248
195
0
248
185
0
248
185
34
248
195
142
241
217
78
255
211
0
254
191
0
254
191
0
254
191
6
253
192
140
243
218
0
253
186
0
254
190
40
252
199
40
252
199
0
254
190
0
253
186
140
243
218
6
253
192
0
254
191
0
254
190
132
250
221
29
250
196
0
254
190
112
247
214
61
239
195
61
239
195
112
247
214
0
254
190
29
250
196
132
250
221
0
254
190
0
253
189
218
250
243
0
252
188
33
252
197
16
246
189
19
250
193
19
250
193
16
246
189
32
252
197
0
252
188
218
250
243
0
253
189
0
253
188
218
250
242
0
253
188
33
250
196
16
252
194
0
254
191
0
254
191
16
252
194
33
250
196
0
253
188
218
250
242
0
253
188
0
254
190
132
244
217
29
253
198
0
254
190
112
237
206
16
254
195
16
254
195
112
237
206
0
254
190
29
253
198
132
244
217
0
254
190
0
254
191
6
250
189
140
250
223
0
254
187
0
253
189
33
248
194
33
248
194
0
253
189
0
254
187
140
250
223
6
250
189
0
254
191
0
254
191
0
254
191
78
244
203
142
249
223
34
254
200
0
254
190
0
254
190
34
254
200
142
249
223
78
244
203
0
254
191
0
254
191
0
254
191
0
254
191
0
254
191
4
248
188
119
236
207
210
244
235
210
244
235
119
236
207
4
248
188
0
254
191
0
254
191
0
254
191
0
254
191
0
254
191
0
254
191
0
254
191
0
255
190
0
252
187
0
252
187
0
255
190
0
254
191
0
254
191
0
254
191
0
254
191
